<svg xmlns="http://www.w3.org/2000/svg" version="1.1" xmlns:xlink="http://www.w3.org/1999/xlink" xmlns:svgjs="http://svgjs.dev/svgjs" viewBox="0 0 800 800" opacity="0.18"><defs><linearGradient x1="50%" y1="0%" x2="50%" y2="100%" id="ccchaos-grad"><stop stop-color="rgb(200,199,205)" stop-opacity="1" offset="0%"></stop><stop stop-color="rgb(225,224,230)" stop-opacity="1" offset="100%"></stop></linearGradient></defs><g stroke-width="2" stroke="url(#ccchaos-grad)" fill="none" stroke-linecap="round"><path d="M397.7 218.02C406.8 206.62 419.87 199.79 419.6 206.39Q418.43 214.83 416.9 223.62 415.62 232.83 415.2 242.56 416.2 252.87 419.06 263.81 424.06 275.4 431.29 287.66 440.64 300.57 451.82 314.09 464.34 328.17 477.62 342.72 490.95 357.65 503.64 372.85 515.01 388.18 524.52 403.51 531.76 418.71 536.51 433.63 538.8 448.13 538.85 462.1 537.11 475.41 534.19 487.98 530.82 499.74 527.79 510.63 525.85 520.64 525.71 529.77 527.9 538.06 532.75 545.57 540.39 552.41 550.65 558.68 563.16 564.52 577.34 570.09C588.14 574.03 590.49 589.25 581.51 598.29Q570.45 608.29 559.39 615.89 548.33 620.15 537.27 620.54 526.22 617.02 515.16 610.02 504.1 600.41 493.04 589.36 481.98 578.24 470.92 568.42 459.87 561.11 448.81 557.21 437.75 557.2 426.69 561.08 415.63 568.38 404.57 578.19 393.52 589.31 382.46 600.36 371.4 609.98 360.34 617 349.28 620.54 338.22 620.16 327.17 615.92 316.11 608.34 305.05 598.34 293.99 587.17 282.93 576.2 271.88 566.78 260.82 560.07 249.76 556.9 238.7 557.65 227.64 562.25C218.67 568.42 209.74 564.22 211.01 553.05Q212.91 538.11 215.26 523.98 218.38 510.71 222.52 498.37 227.84 486.95 234.41 476.45 242.19 466.83 251 458.02 260.58 449.91 270.59 442.41 280.62 435.38 290.27 428.68 299.12 422.16 306.85 415.68 317.31 402.05 323.4 387.32 324.31 379.05 324.51 370.14 324.46 360.54 324.65 350.23 325.58 339.21 327.67 327.51 331.27 315.18 336.59 302.26 343.7 288.86 352.51 275.06 362.75 260.97 374.04 246.69 385.88 232.34 397.7 218.02 397.7 218.02 397.7 218.02" stroke-dasharray="0 0" transform="rotate(0, 400, 400)" opacity="0.05"></path><path d="M393.5 226C402.59 215.09 414.93 208.45 414.16 214.69Q411.8 231.17 411.18 248.79 413.09 258.46 416.83 268.69 422.56 279.52 430.28 290.97 439.84 303.03 450.91 315.68 463.06 328.87 475.73 342.54 488.33 356.62 500.25 371.02 510.93 385.63 519.88 400.33 526.78 415.01 531.44 429.55 533.86 443.81 534.22 457.69 532.89 471.06 530.37 483.84 527.26 495.94 524.25 507.29 521.99 517.85 521.13 527.6 522.19 536.54 525.53 544.68 531.36 552.09 539.67 558.84 550.26 565.01 562.72 570.72C572.54 574.64 574.68 589.11 566.22 597Q555.79 604.97 545.36 610.15 534.94 611.96 524.51 610.21 514.09 605.09 503.66 597.17 493.23 587.34 482.81 576.71 472.38 566.48 461.95 557.78 451.53 551.61 441.1 548.65 430.67 549.24 420.25 553.3 409.82 560.39 399.39 569.71 388.97 580.21 378.54 590.7 368.11 600.02 357.69 607.11 347.26 611.17 336.83 611.76 326.41 608.8 315.98 602.62 305.55 593.93 295.13 583.69 284.7 573.07 274.27 563.24 263.85 555.32 253.42 550.2 242.99 548.45 232.57 550.27C224.11 554.24 215.57 549.23 216.78 539.32Q218.8 526.21 221.44 513.94 224.94 502.52 229.49 491.96 235.18 482.24 242.02 473.3 249.92 465.09 258.69 457.51 268.08 450.47 277.75 443.85 287.35 437.52 296.5 431.36 304.87 425.23 312.16 419 322.09 405.58 327.98 390.89 328.9 382.61 329.12 373.7 329.01 364.15 329.02 353.93 329.57 343.07 331.08 331.6 333.86 319.56 338.18 307.02 344.13 294.05 351.7 280.74 360.76 267.18 371.01 253.47 382.08 239.72 393.5 226 393.5 226 393.5 226" stroke-dasharray="0 0" transform="rotate(4.857142857142857, 400, 400)" opacity="0.10"></path><path d="M389.1 233.99C397.9 223.55 409.51 217.11 408.53 223.02Q406.89 238.53 407.75 255.08 410.55 264.11 415.09 273.66 421.44 283.75 429.54 294.4 439.19 305.63 450.08 317.4 461.78 329.7 473.82 342.48 485.68 355.68 496.84 369.23 506.83 383.05 515.25 397.05 521.81 411.11 526.35 425.14 528.88 439.03 529.53 452.66 528.59 465.95 526.47 478.78 523.67 491.07 520.76 502.76 518.32 513.77 516.91 524.06 517.02 533.61 519.05 542.41 523.24 550.47 529.69 557.84 538.33 564.56 548.92 570.7C557.55 574.82 559.12 588.16 551.16 594.48Q541.35 600.12 531.54 602.85 521.74 602.4 511.93 598.81 502.12 592.44 492.31 583.95 482.51 574.2 472.7 564.19 462.89 554.94 453.08 547.39 443.28 542.31 433.47 540.23 423.66 541.34 413.86 545.55 404.05 552.41 394.24 561.24 384.43 571.12 374.63 581.06 364.82 590.03 355.01 597.13 345.2 601.62 335.4 603.06 325.59 601.28 315.78 596.49 305.97 589.15 296.17 580.03 286.36 570.05 276.55 560.23 266.74 551.57 256.93 544.96 247.13 541.07 237.32 540.3C229.36 542.03 221.36 536.05 222.66 527.49Q224.94 516.26 227.94 505.83 231.86 496.17 236.81 487.26 242.83 479.06 249.88 471.49 257.84 464.47 266.52 457.92 275.65 451.73 284.94 445.79 294.08 439.98 302.73 434.2 310.61 428.32 317.46 422.25 326.88 408.9 332.55 394.19 333.5 385.9 333.74 377.02 333.61 367.53 333.47 357.44 333.72 346.77 334.72 335.55 336.78 323.84 340.16 311.69 345.01 299.18 351.37 286.38 359.19 273.37 368.28 260.25 383.73 240.54 389.1 233.99" stroke-dasharray="0 0" transform="rotate(9.714285714285714, 400, 400)" opacity="0.14"></path><path d="M384.73 241.96C393 232.01 403.89 225.78 402.99 231.35Q402.48 245.92 404.96 261.41 408.6 269.83 413.85 278.71 420.71 288.08 429.05 297.96 438.68 308.36 449.29 319.27 460.49 330.68 471.87 342.56 482.99 354.86 493.4 367.53 502.72 380.51 510.61 393.71 516.83 407.07 521.25 420.48 523.86 433.86 524.77 447.11 524.2 460.15 522.48 472.87 520.02 485.2 517.29 497.05 514.78 508.36 512.99 519.07 512.36 529.15 513.28 538.55 516.02 547.27 520.74 555.3 527.49 562.68 536.15 569.44C543.45 573.94 544.19 585.87 536.72 590.35Q527.51 593.57 518.31 593.97 509.1 591.53 499.89 586.46 490.68 579.24 481.48 570.52 472.27 561.11 463.06 551.88 453.85 543.68 444.64 537.27 435.44 533.23 426.23 531.93 417.02 533.51 407.81 537.8 398.6 544.43 389.4 552.76 380.19 562.05 370.98 571.43 361.77 580.03 352.56 587.07 343.36 591.9 334.15 594.06 324.94 593.37 315.73 589.88 306.52 583.92 297.31 576.04 288.11 566.96 278.9 557.52 269.69 548.58 260.48 540.98 251.27 535.42 242.06 532.4C234.6 532.02 227.27 525.03 228.76 517.81Q231.39 508.39 234.82 499.67 239.18 491.61 244.5 484.17 250.8 477.26 257.99 470.83 265.94 464.79 274.45 459.04 283.28 453.49 292.16 448.04 300.81 442.59 308.95 437.04 322.21 425.13 332.24 412.18 336.66 396.92 338.37 380.06 338.23 370.67 338 360.73 338.01 350.29 338.59 339.36 340.02 328.01 342.56 316.28 346.38 304.25 351.57 291.97 358.13 279.53 365.98 267 379.83 248.21 384.73 241.96" stroke-dasharray="0 0" transform="rotate(14.571428571428571, 400, 400)" opacity="0.19"></path><path d="M380.66 249.92C388.17 240.47 398.37 234.46 397.76 239.69Q398.68 253.34 402.84 267.8 407.24 275.62 413.08 283.85 420.31 292.52 428.78 301.64 438.28 311.23 448.53 321.3 459.18 331.83 469.88 342.8 480.25 354.19 489.93 365.96 498.59 378.05 505.97 390.42 511.86 402.98 516.14 415.68 518.81 428.44 519.95 441.17 519.72 453.8 518.4 466.25 516.3 478.43 513.81 490.28 511.35 501.72 509.32 512.69 508.14 523.14 508.16 533.02 509.65 542.31 512.84 550.99 517.81 559.04 524.57 566.49C530.49 571.47 530.22 581.81 523.22 584.35Q514.59 585.23 505.96 583.56 497.33 579.48 488.7 573.33 480.06 565.62 471.43 556.99 462.8 548.15 454.17 539.83 445.54 532.72 436.91 527.41 419.64 525.04 402.38 530.08 393.75 536.44 385.12 544.29 376.49 552.99 367.85 561.8 359.22 570.01 350.59 576.94 341.96 582 333.33 584.79 324.7 585.06 316.06 582.8 307.43 578.2 298.8 571.63 290.17 563.64 281.54 554.89 272.9 546.11 264.27 538.02 255.64 531.29 247.01 526.47C240.01 524.26 233.46 516.36 235.21 510.39Q242.6 495.67 252.58 482.5 259.08 476.66 266.34 471.12 274.21 465.82 282.48 460.66 290.96 455.55 299.39 450.42 307.53 445.18 315.15 439.76 327.55 427.88 336.97 414.88 341.25 399.59 343.01 382.82 342.89 373.56 342.61 363.82 342.44 353.63 342.67 343.03 343.57 332.07 345.37 320.79 348.25 309.25 352.34 297.52 357.69 285.66 364.27 273.73 376.32 255.86 380.66 249.92" stroke-dasharray="0 0" transform="rotate(19.428571428571427, 400, 400)" opacity="0.23"></path><path d="M377.1 257.88C383.7 248.92 393.22 243.15 393.08 248.04Q395.6 260.79 401.4 274.24 406.45 281.48 412.75 289.08 420.22 297.06 428.69 305.45 437.96 314.26 447.77 323.5 457.83 333.16 467.83 343.24 477.46 353.72 486.43 364.57 494.45 375.75 501.32 387.22 506.87 398.94 511.01 410.84 513.72 422.87 515.05 434.96 515.14 447.04 514.2 459.05 512.47 470.92 510.27 482.58 507.94 493.96 505.83 505 504.27 515.65 503.59 525.85 504.07 535.58 505.93 544.78 509.31 553.44 514.28 561.54C518.84 567.02 517.49 575.69 510.94 576.34Q494.78 571.72 478.62 559.6 462.45 543.5 446.29 528.08 430.12 517.83 413.96 515.72 397.8 522.35 381.63 535.81 365.47 552.18 349.3 566.73 333.14 575.23 316.98 575.21 300.81 566.68 284.65 552.12 268.48 535.74 252.32 522.3C245.77 518.64 240.08 510.02 242.16 505.16Q250.41 493.05 261.04 482.03 267.68 476.99 274.92 472.11 282.62 467.32 290.61 462.54 298.68 457.71 306.63 452.76 321.01 442.06 333.35 430.47 341.22 416.96 346.25 402.15 347.27 393.94 347.65 385.29 347.58 376.2 347.27 366.7 346.98 356.81 346.95 346.57 347.41 336.02 348.58 325.22 350.63 314.2 353.72 303.03 357.91 291.75 363.24 280.43 373.39 263.5 377.1 257.88" stroke-dasharray="0 0" transform="rotate(24.285714285714285, 400, 400)" opacity="0.28"></path><path d="M374.27 265.82C379.85 257.36 388.71 251.83 389.18 256.41Q393.34 268.27 400.64 280.74 406.21 287.42 412.84 294.4 420.4 301.73 428.76 309.41 437.71 317.46 447.02 325.89 456.45 334.71 465.74 343.91 474.64 353.48 482.9 363.4 490.3 373.66 496.68 384.21 501.9 395.03 505.87 406.07 508.59 417.28 510.09 428.62 510.48 440.03 509.89 451.46 508.54 462.85 506.67 474.13 504.55 485.25 502.46 496.17 500.69 506.81 499.53 517.13 499.22 527.09 499.98 536.64 501.99 545.76 505.34 554.41C508.63 560.34 506.21 567.39 500.08 566.35Q484.96 558.67 469.84 545.47 454.72 530.17 439.61 516.7 424.49 508.54 409.37 507.79 394.25 514.64 379.14 527.33 364.02 542.59 348.9 556.48 333.78 565.43 318.66 567.13 303.54 561.14 288.43 549 273.31 533.85 258.19 519.59C252.05 514.92 247.26 505.84 249.68 501.87Q258.72 491.81 269.88 482.39 283.86 473.45 298.79 464.43 306.42 459.73 313.86 454.84 327.21 444.11 338.63 432.42 346 418.85 350.81 404.07 352.06 387.28 351.98 369.37 351.62 359.82 351.4 349.97 351.51 339.88 352.16 329.57 353.5 319.09 355.69 308.49 358.83 297.82 362.97 287.12 371.2 271.13 374.27 265.82" stroke-dasharray="0 0" transform="rotate(29.142857142857142, 400, 400)" opacity="0.32"></path><path d="M372.31 273.76C376.85 265.81 385.08 260.54 386.22 264.78Q391.47 275.69 400.54 287.28 413.28 299.82 428.94 313.5 446.24 328.48 463.59 344.81 479.33 362.5 492.03 381.44 500.72 401.46 505.07 422.3 505.46 443.64 502.96 465.14 499.14 486.41 495.84 507.06 494.89 526.73 497.73 545.1C499.87 551.34 496.48 556.92 490.75 554.51Q476.62 544.65 462.5 531.17 448.38 517.13 434.25 505.72 420.13 499.54 406 499.98 391.88 506.95 377.75 518.86 363.63 533.01 349.51 546.18 335.38 555.39 321.26 558.54 307.13 554.91 293.01 545.34 278.88 531.99 264.76 517.89C259.03 512.71 255.12 503.45 257.87 500.18Q267.28 491.55 279.08 483.26 292.64 474.9 307.02 466.1 321.08 456.5 333.69 445.81 343.91 433.84 351.16 420.45 355.36 405.6 356.91 389.35 356.72 371.83 355.99 353.24 356.08 333.84 358.26 313.92 363.51 293.79 372.31 273.76 372.31 273.76 372.31 273.76" stroke-dasharray="0 0" transform="rotate(34, 400, 400)" opacity="0.37"></path><path d="M371.37 281.68C374.87 274.24 382.51 269.24 384.3 273.17Q391.02 283.23 401.04 293.88 414.03 305.32 429.2 317.74 445.42 331.26 461.37 345.98 475.74 361.9 487.39 378.98 495.56 397.11 499.98 416.12 500.9 435.79 499.12 455.84 495.82 475.98 492.45 495.88 490.52 515.24 491.36 533.75C492.54 540.15 488.32 544.48 482.97 541.05Q469.79 529.94 456.62 516.89 443.44 504.48 430.27 495.17 417.09 490.82 403.92 492.28 390.74 499.26 377.56 510.39 364.39 523.44 351.21 535.84 338.04 545.13 324.86 549.46 311.68 547.97 298.51 540.96 285.33 529.83 272.15 516.77C266.81 511.51 263.73 502.39 266.77 499.59Q276.73 491.94 288.6 484.21 301.74 476.09 315.28 467.29 328.29 457.57 339.83 446.74 349.18 434.68 355.89 421.34 359.9 406.73 361.53 390.94 361.47 374.09 360.7 356.39 360.31 338.04 361.41 319.3 364.9 300.43 371.37 281.68 371.37 281.68 371.37 281.68" stroke-dasharray="0 0" transform="rotate(38.857142857142854, 400, 400)" opacity="0.41"></path><path d="M371.52 289.6C374.04 282.67 381.13 277.94 383.51 281.57Q391.44 290.81 402.1 300.54 415.03 310.92 429.5 322.12 444.54 334.26 459.08 347.41 472.1 361.62 482.73 376.87 490.38 393.11 494.81 410.23 496.2 428.08 495.11 446.46 492.41 465.16 489.22 483.94 486.74 502.52 486.1 520.67C486.52 527.05 481.68 530.36 476.7 526.34Q464.44 514.89 452.17 502.86 439.91 492.32 427.64 485.08 415.37 482.38 403.11 484.67 390.84 491.58 378.57 501.91 366.31 513.89 354.04 525.48 341.77 534.67 329.51 539.91 317.24 540.28 304.97 535.73 292.71 527.03 280.44 515.69C275.47 510.77 273.14 502.08 276.41 499.55Q286.71 492.41 298.42 484.89 310.96 476.76 323.56 467.82 335.47 457.93 345.95 446.98 354.45 434.91 360.62 421.72 364.43 407.47 366.13 392.23 366.23 376.16 365.5 359.41 364.82 342.17 365.08 324.65 367.11 307.06 371.52 289.6 371.52 289.6 371.52 289.6" stroke-dasharray="0 0" transform="rotate(43.714285714285715, 400, 400)" opacity="0.46"></path><path d="M372.77 297.5C374.44 291.08 380.98 286.66 383.86 289.98Q392.68 298.41 403.62 307.24 416.22 316.62 429.81 326.66 443.59 337.47 456.73 349.14 468.44 361.7 478.08 375.18 485.19 389.55 489.59 404.76 491.37 420.7 490.93 437.26 488.89 454.29 486.07 471.59 483.4 489 481.79 506.29C481.65 512.45 476.42 515.03 471.8 510.8Q460.42 499.8 449.03 489.26 437.65 480.73 426.27 475.45 414.88 474.2 403.5 477.17 392.11 483.91 380.73 493.44 369.35 504.36 357.96 515.09 346.58 524.04 335.19 529.91 323.81 531.83 312.42 529.53 301.04 523.35 289.66 514.18C285.04 509.91 283.36 501.91 286.77 499.49Q297.13 492.48 308.47 484.9 320.24 476.61 331.82 467.49 342.6 457.46 352.04 446.46 359.7 434.49 365.35 421.59 368.95 407.81 370.7 393.25 370.98 378.04 370.37 362.32 369.54 346.23 369.22 329.96 371.44 305.58 372.77 297.5" stroke-dasharray="0 0" transform="rotate(48.57142857142857, 400, 400)" opacity="0.50"></path><path d="M375.08 305.41C376.05 299.51 382.06 295.39 385.31 298.39Q394.65 306.04 405.54 314 417.54 322.4 430.09 331.34 442.55 340.9 454.3 351.16 464.75 362.17 473.42 373.95 479.99 386.51 484.29 399.82 486.4 413.83 486.54 428.47 485.18 443.65 482.87 459.24 480.31 475.11 478.21 491.11C477.7 496.86 472.34 498.96 468.07 494.89Q457.55 485 447.03 476.27 436.51 469.76 425.99 466.29 415.48 466.28 404.96 469.74 394.44 476.23 383.92 484.95 373.4 494.84 362.89 504.68 352.37 513.24 341.85 519.48 331.33 522.63 320.81 522.3 310.29 518.53 299.77 511.78C295.5 508.38 294.35 501.27 297.78 498.84Q307.95 491.72 318.69 483.96 329.55 475.46 340.04 466.18 349.69 456.08 358.1 445.16 364.95 433.43 370.08 420.95 373.47 407.78 375.24 394.01 375.7 379.75 375.26 365.12 374.42 350.24 373.74 335.24 374.44 312.83 375.08 305.41" stroke-dasharray="0 0" transform="rotate(53.42857142857143, 400, 400)" opacity="0.55"></path><path d="M378.38 313.29C378.8 307.91 384.3 304.11 387.74 306.81Q397.21 313.69 407.73 320.81 418.91 328.28 430.29 336.16 441.41 344.55 451.79 353.48 461.03 363.02 468.77 373.19 474.78 384.02 478.94 395.49 481.27 407.59 481.94 420.29 481.22 433.52 479.52 447.22 477.31 461.31 475.11 475.68C474.42 480.91 469.15 482.75 465.24 479.14Q455.58 470.83 445.92 464.05 436.26 459.5 426.61 457.62 416.95 458.62 407.29 462.4 397.63 468.56 387.97 476.48 378.31 485.35 368.65 494.27 359 502.33 349.34 508.7 339.68 512.73 330.02 514.02 320.36 512.43 310.7 508.12C306.78 505.69 306.02 499.59 309.38 497.09Q319.08 489.74 329.03 481.77 338.86 473.12 348.21 463.78 356.73 453.75 364.13 443.06 370.19 431.73 374.81 419.82 377.97 407.39 379.76 394.52 380.38 381.3 380.14 367.82 379.4 354.18 378.58 340.48 378.24 320.05 378.38 313.29" stroke-dasharray="0 0" transform="rotate(58.285714285714285, 400, 400)" opacity="0.59"></path><path d="M382.52 321.17C382.56 316.31 387.54 312.84 391.02 315.26Q400.25 321.37 410.1 327.68 420.26 334.25 430.39 341.14 440.15 348.41 449.2 356.11 457.27 364.28 464.11 372.94 469.55 382.14 473.51 391.86 476 402.12 477.1 412.9 476.99 424.18 475.93 435.92 474.23 448.07 472.25 460.58C471.54 465.16 466.57 466.92 463 463.96Q454.21 457.53 445.42 452.72 436.63 449.94 427.83 449.42 419.04 451.2 410.25 455.13 401.46 460.89 392.66 468.01 383.87 475.88 375.08 483.87 366.29 491.31 357.49 497.58 348.7 502.17 339.91 504.69 331.11 504.94 322.32 502.9C318.75 501.45 318.24 496.39 321.42 493.8Q330.41 486.26 339.4 478.15 348.12 469.48 356.29 460.24 363.69 450.47 370.12 440.18 375.43 429.41 379.54 418.22 382.46 406.66 384.24 394.8 385.02 382.7 385 370.43 384.44 358.07 383.63 345.7 382.71 327.27 382.52 321.17" stroke-dasharray="0 0" transform="rotate(63.142857142857146, 400, 400)" opacity="0.64"></path><path d="M387.33 329.04C387.12 324.72 391.62 321.58 394.95 323.71Q403.6 329.09 412.54 334.61 421.54 340.32 430.36 346.27 438.77 352.49 446.54 359.04 453.49 365.94 459.45 373.22 464.32 380.9 468.03 389 470.58 397.52 472.02 406.48 472.44 415.85 472 425.64 470.9 435.81 469.36 446.35C468.75 450.22 464.26 452.01 461.05 449.81Q445.23 442.35 429.4 441.66 413.58 447.93 397.75 459.53 381.92 473.49 366.1 486.19 350.27 494.38 334.44 495.93C331.23 495.36 330.86 491.33 333.76 488.7Q341.83 481.09 349.73 473.02 357.27 464.52 364.27 455.59 370.58 446.26 376.07 436.56 380.65 426.53 384.27 416.21 386.93 405.65 388.67 394.89 389.58 383.98 389.79 372.97 389.46 361.93 388.8 350.89 387.67 334.47 387.33 329.04" stroke-dasharray="0 0" transform="rotate(68, 400, 400)" opacity="0.68"></path><path d="M392.57 336.91C392.29 333.12 396.27 330.33 399.33 332.17Q414.94 341.57 430.17 351.52 443.79 362.26 454.79 374 462.49 386.9 466.68 401.09 467.66 416.6 466.21 433.41C465.77 436.56 461.88 438.43 459.03 437.01Q445.01 432.99 430.99 434.34 416.97 440.79 402.95 451.06 388.94 463.12 374.91 474.57 360.89 483.15 346.87 487.15C344.02 487.31 343.69 484.22 346.24 481.61Q359.94 466.35 372.13 449.84 381.99 432.25 389 413.82 393.06 394.79 394.47 375.44 393.97 356.06 392.57 336.91 392.57 336.91 392.57 336.91" stroke-dasharray="0 0" transform="rotate(72.85714285714286, 400, 400)" opacity="0.73"></path><path d="M398.03 344.76C397.77 341.5 401.22 339.08 403.9 340.65Q417.17 348.6 429.77 356.92 440.95 365.76 450.12 375.28 456.88 385.6 461.08 396.81 462.84 408.97 462.55 422.12C462.33 424.6 459.11 426.51 456.65 425.8Q444.49 424.64 432.33 427.4 420.16 433.69 408 442.59 395.84 452.78 383.68 462.79 371.51 471.14 359.35 476.62C356.88 477.29 356.53 475.01 358.67 472.52Q369.96 458.21 379.85 443.1 387.86 427.35 393.73 411.1 397.39 394.54 399.03 377.85 398.54 352.98 398.03 344.76" stroke-dasharray="0 0" transform="rotate(77.71428571428571, 400, 400)" opacity="0.77"></path><path d="M403.46 352.61C403.28 349.88 406.19 347.84 408.4 349.14Q419.14 355.67 429.15 362.44 438.03 369.54 445.46 377.05 451.22 385.07 455.22 393.65 457.49 402.86 458.2 412.73C458.18 414.58 455.68 416.46 453.6 416.32Q443.35 417.26 433.11 420.82 422.87 426.63 412.62 434.1 402.38 442.47 392.14 450.88 381.89 458.48 371.65 464.48C369.57 465.45 369.15 463.85 370.84 461.59Q379.7 448.78 387.39 435.53 393.69 421.94 398.46 408.12 401.68 394.17 403.43 380.21 403.69 359.46 403.46 352.61" stroke-dasharray="0 0" transform="rotate(82.57142857142857, 400, 400)" opacity="0.82"></path><path d="M408.6 360.45C408.54 358.26 410.9 356.6 412.59 357.64Q420.76 362.79 428.29 368.09 440.26 379.41 449.1 391.56 451.59 398.23 453 405.28C453.15 406.6 451.32 408.35 449.65 408.59Q433.11 414.56 416.57 425.63 400.02 438.93 383.48 451.05C381.8 452.08 381.33 450.99 382.58 449.07Q389.09 438.26 394.76 427.27 399.47 416.15 403.19 404.95 405.9 393.72 407.63 382.53 408.55 365.94 408.6 360.45" stroke-dasharray="0 0" transform="rotate(87.42857142857143, 400, 400)" opacity="0.86"></path><path d="M413.22 368.29C413.28 366.64 415.07 365.38 416.25 366.14Q427.17 373.85 436.12 381.9 442.72 390.48 446.83 399.73C447.08 400.59 445.87 402.08 444.6 402.52Q432.11 408.58 419.62 417.15 407.13 426.98 394.63 436.63C393.37 437.54 392.88 436.84 393.72 435.34Q401.93 418.54 407.92 401.65 412.42 376.56 413.22 368.29" stroke-dasharray="0 0" transform="rotate(92.28571428571429, 400, 400)" opacity="0.91"></path><path d="M417.12 376.11C417.24 375.01 418.44 374.16 419.16 374.66Q430.93 384.98 439.63 395.84C439.9 396.35 439.2 397.46 438.36 397.89Q421.62 408.68 404.88 421.66C404.04 422.31 403.61 421.88 404.1 420.87Q408.88 409.56 412.65 398.3 416.25 381.62 417.12 376.11" stroke-dasharray="0 0" transform="rotate(97.14285714285714, 400, 400)" opacity="0.95"></path></g></svg>